<?xml version="1.0" encoding="UTF-8" standalone="no"?><!DOCTYPE svg PUBLIC "-//W3C//DTD SVG 1.1//EN" "http://www.w3.org/Graphics/SVG/1.1/DTD/svg11.dtd"><!-- Generated by graphviz version 2.40.1 (20161225.0304)
 --><!-- Title: G Pages: 1 --><svg xmlns="http://www.w3.org/2000/svg" xmlns:xlink="http://www.w3.org/1999/xlink" width="282pt" height="400pt" viewBox="0.00 0.00 282.23 400.49">
<g id="graph0" class="graph" transform="scale(1 1) rotate(0) translate(4 396.4939)">
<title>G</title>
<polygon fill="#ffffff" stroke="transparent" points="-4,4 -4,-396.4939 278.2313,-396.4939 278.2313,4 -4,4"/>
<!-- receive_html -->
<g id="node1" class="node">
<title>receive_html</title>
<ellipse fill="none" stroke="#000000" cx="131.8847" cy="-363.0782" rx="73.9211" ry="29.3315"/>
<text text-anchor="middle" x="131.8847" y="-367.2782" font-family="Times,serif" font-size="14.00" fill="#000000">Receive HTML</text>
<text text-anchor="middle" x="131.8847" y="-350.4782" font-family="Times,serif" font-size="14.00" fill="#000000">Byte Stream</text>
</g>
<!-- build_dom_tree -->
<g id="node2" class="node">
<title>build_dom_tree</title>
<ellipse fill="none" stroke="#000000" cx="58.8847" cy="-268.2469" rx="58.7697" ry="29.3315"/>
<text text-anchor="middle" x="58.8847" y="-272.4469" font-family="Times,serif" font-size="14.00" fill="#000000">Build DOM</text>
<text text-anchor="middle" x="58.8847" y="-255.6469" font-family="Times,serif" font-size="14.00" fill="#000000">tree</text>
</g>
<!-- receive_html&#45;&gt;build_dom_tree -->
<g id="edge1" class="edge">
<title>receive_html-&gt;build_dom_tree</title>
<path fill="none" stroke="#000000" d="M110.18,-334.8825C102.6852,-325.1463 94.1885,-314.1086 86.2971,-303.8572"/>
<polygon fill="#000000" stroke="#000000" points="89.0022,-301.6334 80.1289,-295.8443 83.4553,-305.9034 89.0022,-301.6334"/>
</g>
<!-- build_cssom_tree -->
<g id="node3" class="node">
<title>build_cssom_tree</title>
<ellipse fill="none" stroke="#000000" cx="204.8847" cy="-268.2469" rx="69.1934" ry="29.3315"/>
<text text-anchor="middle" x="204.8847" y="-272.4469" font-family="Times,serif" font-size="14.00" fill="#000000">Build CSSOM</text>
<text text-anchor="middle" x="204.8847" y="-255.6469" font-family="Times,serif" font-size="14.00" fill="#000000">tree</text>
</g>
<!-- receive_html&#45;&gt;build_cssom_tree -->
<g id="edge2" class="edge">
<title>receive_html-&gt;build_cssom_tree</title>
<path fill="none" stroke="#000000" d="M153.5895,-334.8825C160.8788,-325.4133 169.1157,-314.7131 176.8217,-304.7024"/>
<polygon fill="#000000" stroke="#000000" points="179.8111,-306.5569 183.1376,-296.4978 174.2642,-302.2869 179.8111,-306.5569"/>
</g>
<!-- build_render_tree -->
<g id="node4" class="node">
<title>build_render_tree</title>
<ellipse fill="none" stroke="#000000" cx="131.8847" cy="-173.4156" rx="119.2672" ry="29.3315"/>
<text text-anchor="middle" x="131.8847" y="-177.6156" font-family="Times,serif" font-size="14.00" fill="#000000">Combine DOM &amp; CSSOM</text>
<text text-anchor="middle" x="131.8847" y="-160.8156" font-family="Times,serif" font-size="14.00" fill="#000000">into Render Tree</text>
</g>
<!-- build_dom_tree&#45;&gt;build_render_tree -->
<g id="edge3" class="edge">
<title>build_dom_tree-&gt;build_render_tree</title>
<path fill="none" stroke="#000000" d="M80.1956,-240.5629C87.363,-231.252 95.4815,-220.7056 103.1252,-210.7759"/>
<polygon fill="#000000" stroke="#000000" points="106.0765,-212.6798 109.403,-202.6207 100.5297,-208.4099 106.0765,-212.6798"/>
</g>
<!-- build_cssom_tree&#45;&gt;build_render_tree -->
<g id="edge4" class="edge">
<title>build_cssom_tree-&gt;build_render_tree</title>
<path fill="none" stroke="#000000" d="M183.18,-240.0512C176.0221,-230.7526 167.9503,-220.267 160.3648,-210.4129"/>
<polygon fill="#000000" stroke="#000000" points="163.0114,-208.1131 154.138,-202.3239 157.4645,-212.383 163.0114,-208.1131"/>
</g>
<!-- create_layout -->
<g id="node5" class="node">
<title>create_layout</title>
<ellipse fill="none" stroke="#000000" cx="131.8847" cy="-90" rx="66.0096" ry="18"/>
<text text-anchor="middle" x="131.8847" y="-85.8" font-family="Times,serif" font-size="14.00" fill="#000000">Create Layout</text>
</g>
<!-- build_render_tree&#45;&gt;create_layout -->
<g id="edge5" class="edge">
<title>build_render_tree-&gt;create_layout</title>
<path fill="none" stroke="#000000" d="M131.8847,-143.7715C131.8847,-135.5664 131.8847,-126.6796 131.8847,-118.5388"/>
<polygon fill="#000000" stroke="#000000" points="135.3848,-118.3865 131.8847,-108.3866 128.3848,-118.3866 135.3848,-118.3865"/>
</g>
<!-- begin_paint -->
<g id="node6" class="node">
<title>begin_paint</title>
<ellipse fill="none" stroke="#000000" cx="131.8847" cy="-18" rx="56.2385" ry="18"/>
<text text-anchor="middle" x="131.8847" y="-13.8" font-family="Times,serif" font-size="14.00" fill="#000000">Begin Paint</text>
</g>
<!-- create_layout&#45;&gt;begin_paint -->
<g id="edge6" class="edge">
<title>create_layout-&gt;begin_paint</title>
<path fill="none" stroke="#000000" d="M131.8847,-71.8314C131.8847,-64.131 131.8847,-54.9743 131.8847,-46.4166"/>
<polygon fill="#000000" stroke="#000000" points="135.3848,-46.4132 131.8847,-36.4133 128.3848,-46.4133 135.3848,-46.4132"/>
</g>
</g>
</svg>